<svg version="1.1" xmlns="http://www.w3.org/2000/svg" viewBox="0 0 2482.251464444153 1212.1818321155313" width="4964.502928888306" height="2424.3636642310626"><!-- svg-source:excalidraw --><metadata></metadata><defs><style class="style-fonts">
      </style></defs><g stroke-opacity="0.5" fill-opacity="0.5" stroke-linecap="round" transform="translate(10 43.13512721712823) rotate(0 678.786029226008 579.5233524492015)"><path d="M32 0 C424.85 0, 817.71 0, 1325.57 0 C1346.91 0, 1357.57 10.67, 1357.57 32 C1357.57 448.29, 1357.57 864.58, 1357.57 1127.05 C1357.57 1148.38, 1346.91 1159.05, 1325.57 1159.05 C1022.02 1159.05, 718.46 1159.05, 32 1159.05 C10.67 1159.05, 0 1148.38, 0 1127.05 C0 896.35, 0 665.66, 0 32 C0 10.67, 10.67 0, 32 0" stroke="none" stroke-width="0" fill="#ced4da"></path><path d="M32 0 C472.27 0, 912.54 0, 1325.57 0 M32 0 C323.27 0, 614.53 0, 1325.57 0 M1325.57 0 C1346.91 0, 1357.57 10.67, 1357.57 32 M1325.57 0 C1346.91 0, 1357.57 10.67, 1357.57 32 M1357.57 32 C1357.57 434.63, 1357.57 837.25, 1357.57 1127.05 M1357.57 32 C1357.57 468.75, 1357.57 905.49, 1357.57 1127.05 M1357.57 1127.05 C1357.57 1148.38, 1346.91 1159.05, 1325.57 1159.05 M1357.57 1127.05 C1357.57 1148.38, 1346.91 1159.05, 1325.57 1159.05 M1325.57 1159.05 C834.41 1159.05, 343.24 1159.05, 32 1159.05 M1325.57 1159.05 C1060.84 1159.05, 796.12 1159.05, 32 1159.05 M32 1159.05 C10.67 1159.05, 0 1148.38, 0 1127.05 M32 1159.05 C10.67 1159.05, 0 1148.38, 0 1127.05 M0 1127.05 C0 855.52, 0 583.99, 0 32 M0 1127.05 C0 751.91, 0 376.77, 0 32 M0 32 C0 10.67, 10.67 0, 32 0 M0 32 C0 10.67, 10.67 0, 32 0" stroke="#ffffff" stroke-width="4" fill="none"></path></g><g stroke-opacity="0.7" fill-opacity="0.7" stroke-linecap="round" transform="translate(388.32998787839006 312.7623623616373) rotate(0 475.06181678350754 406.96014877474965)"><path d="M32 0 C349.4 0, 666.79 0, 918.12 0 C939.46 0, 950.12 10.67, 950.12 32 C950.12 208.85, 950.12 385.71, 950.12 781.92 C950.12 803.25, 939.46 813.92, 918.12 813.92 C737.48 813.92, 556.84 813.92, 32 813.92 C10.67 813.92, 0 803.25, 0 781.92 C0 510.91, 0 239.89, 0 32 C0 10.67, 10.67 0, 32 0" stroke="none" stroke-width="0" fill="#a5d8ff"></path><path d="M32 0 C216.95 0, 401.89 0, 918.12 0 M918.12 0 C939.46 0, 950.12 10.67, 950.12 32 M950.12 32 C950.12 255.23, 950.12 478.46, 950.12 781.92 M950.12 781.92 C950.12 803.25, 939.46 813.92, 918.12 813.92 M918.12 813.92 C573.4 813.92, 228.67 813.92, 32 813.92 M32 813.92 C10.67 813.92, 0 803.25, 0 781.92 M0 781.92 C0 608.67, 0 435.42, 0 32 M0 32 C0 10.67, 10.67 0, 32 0" stroke="#1971c2" stroke-width="4.5" fill="none" stroke-dasharray="1.5 10"></path></g><g stroke-linecap="round" transform="translate(1522.127830877138 10) rotate(0 475.06181678350754 406.96014877474965)"><path d="M32 0 C239.94 0, 447.88 0, 918.12 0 C939.46 0, 950.12 10.67, 950.12 32 C950.12 182.5, 950.12 333.01, 950.12 781.92 C950.12 803.25, 939.46 813.92, 918.12 813.92 C611.61 813.92, 305.1 813.92, 32 813.92 C10.67 813.92, 0 803.25, 0 781.92 C0 529.92, 0 277.91, 0 32 C0 10.67, 10.67 0, 32 0" stroke="none" stroke-width="0" fill="#a5d8ff"></path><path d="M32 0 C354.31 0, 676.63 0, 918.12 0 M32 0 C218.53 0, 405.06 0, 918.12 0 M918.12 0 C939.46 0, 950.12 10.67, 950.12 32 M918.12 0 C939.46 0, 950.12 10.67, 950.12 32 M950.12 32 C950.12 329.54, 950.12 627.07, 950.12 781.92 M950.12 32 C950.12 298.39, 950.12 564.78, 950.12 781.92 M950.12 781.92 C950.12 803.25, 939.46 813.92, 918.12 813.92 M950.12 781.92 C950.12 803.25, 939.46 813.92, 918.12 813.92 M918.12 813.92 C676.38 813.92, 434.64 813.92, 32 813.92 M918.12 813.92 C622.81 813.92, 327.49 813.92, 32 813.92 M32 813.92 C10.67 813.92, 0 803.25, 0 781.92 M32 813.92 C10.67 813.92, 0 803.25, 0 781.92 M0 781.92 C0 487.03, 0 192.13, 0 32 M0 781.92 C0 547, 0 312.08, 0 32 M0 32 C0 10.67, 10.67 0, 32 0 M0 32 C0 10.67, 10.67 0, 32 0" stroke="#1971c2" stroke-width="4" fill="none"></path></g><g stroke-opacity="0.7" fill-opacity="0.7" stroke-linecap="round" transform="translate(1620.9974547167758 111.24209961921588) rotate(0 90.29510215681944 90.29510215681944)"><path d="M180.59 90.3 C180.59 93.25, 180.44 96.21, 180.16 99.15 C179.87 102.08, 179.43 105.02, 178.86 107.91 C178.28 110.8, 177.56 113.68, 176.7 116.51 C175.85 119.33, 174.85 122.12, 173.72 124.85 C172.59 127.58, 171.32 130.26, 169.93 132.86 C168.54 135.46, 167.01 138.01, 165.37 140.46 C163.73 142.91, 161.97 145.3, 160.09 147.58 C158.22 149.86, 156.23 152.06, 154.14 154.14 C152.06 156.23, 149.86 158.22, 147.58 160.09 C145.3 161.97, 142.91 163.73, 140.46 165.37 C138.01 167.01, 135.46 168.54, 132.86 169.93 C130.26 171.32, 127.58 172.59, 124.85 173.72 C122.12 174.85, 119.33 175.85, 116.51 176.7 C113.68 177.56, 110.8 178.28, 107.91 178.86 C105.02 179.43, 102.08 179.87, 99.15 180.16 C96.21 180.44, 93.25 180.59, 90.3 180.59 C87.34 180.59, 84.38 180.44, 81.44 180.16 C78.51 179.87, 75.57 179.43, 72.68 178.86 C69.79 178.28, 66.91 177.56, 64.08 176.7 C61.26 175.85, 58.47 174.85, 55.74 173.72 C53.02 172.59, 50.33 171.32, 47.73 169.93 C45.13 168.54, 42.58 167.01, 40.13 165.37 C37.68 163.73, 35.29 161.97, 33.01 160.09 C30.73 158.22, 28.53 156.23, 26.45 154.14 C24.36 152.06, 22.37 149.86, 20.5 147.58 C18.62 145.3, 16.86 142.91, 15.22 140.46 C13.58 138.01, 12.05 135.46, 10.66 132.86 C9.27 130.26, 8 127.58, 6.87 124.85 C5.74 122.12, 4.74 119.33, 3.89 116.51 C3.03 113.68, 2.31 110.8, 1.73 107.91 C1.16 105.02, 0.72 102.08, 0.43 99.15 C0.15 96.21, 0 93.25, 0 90.3 C0 87.34, 0.15 84.38, 0.43 81.44 C0.72 78.51, 1.16 75.57, 1.73 72.68 C2.31 69.79, 3.03 66.91, 3.89 64.08 C4.74 61.26, 5.74 58.47, 6.87 55.74 C8 53.02, 9.27 50.33, 10.66 47.73 C12.05 45.13, 13.58 42.58, 15.22 40.13 C16.86 37.68, 18.62 35.29, 20.5 33.01 C22.37 30.73, 24.36 28.53, 26.45 26.45 C28.53 24.36, 30.73 22.37, 33.01 20.5 C35.29 18.62, 37.68 16.86, 40.13 15.22 C42.58 13.58, 45.13 12.05, 47.73 10.66 C50.33 9.27, 53.02 8, 55.74 6.87 C58.47 5.74, 61.26 4.74, 64.08 3.89 C66.91 3.03, 69.79 2.31, 72.68 1.73 C75.57 1.16, 78.51 0.72, 81.44 0.43 C84.38 0.15, 87.34 0, 90.3 0 C93.25 0, 96.21 0.15, 99.15 0.43 C102.08 0.72, 105.02 1.16, 107.91 1.73 C110.8 2.31, 113.68 3.03, 116.51 3.89 C119.33 4.74, 122.12 5.74, 124.85 6.87 C127.58 8, 130.26 9.27, 132.86 10.66 C135.46 12.05, 138.01 13.58, 140.46 15.22 C142.91 16.86, 145.3 18.62, 147.58 20.5 C149.86 22.37, 152.06 24.36, 154.14 26.45 C156.23 28.53, 158.22 30.73, 160.09 33.01 C161.97 35.29, 163.73 37.68, 165.37 40.13 C167.01 42.58, 168.54 45.13, 169.93 47.73 C171.32 50.33, 172.59 53.02, 173.72 55.74 C174.85 58.47, 175.85 61.26, 176.7 64.08 C177.56 66.91, 178.28 69.79, 178.86 72.68 C179.43 75.57, 179.87 78.51, 180.16 81.44 C180.44 84.38, 180.52 88.82, 180.59 90.3 C180.66 91.77, 180.66 88.82, 180.59 90.3" stroke="none" stroke-width="0" fill="#a5d8ff"></path><path d="M180.59 90.3 C180.59 93.25, 180.44 96.21, 180.16 99.15 C179.87 102.08, 179.43 105.02, 178.86 107.91 C178.28 110.8, 177.56 113.68, 176.7 116.51 C175.85 119.33, 174.85 122.12, 173.72 124.85 C172.59 127.58, 171.32 130.26, 169.93 132.86 C168.54 135.46, 167.01 138.01, 165.37 140.46 C163.73 142.91, 161.97 145.3, 160.09 147.58 C158.22 149.86, 156.23 152.06, 154.14 154.14 C152.06 156.23, 149.86 158.22, 147.58 160.09 C145.3 161.97, 142.91 163.73, 140.46 165.37 C138.01 167.01, 135.46 168.54, 132.86 169.93 C130.26 171.32, 127.58 172.59, 124.85 173.72 C122.12 174.85, 119.33 175.85, 116.51 176.7 C113.68 177.56, 110.8 178.28, 107.91 178.86 C105.02 179.43, 102.08 179.87, 99.15 180.16 C96.21 180.44, 93.25 180.59, 90.3 180.59 C87.34 180.59, 84.38 180.44, 81.44 180.16 C78.51 179.87, 75.57 179.43, 72.68 178.86 C69.79 178.28, 66.91 177.56, 64.08 176.7 C61.26 175.85, 58.47 174.85, 55.74 173.72 C53.02 172.59, 50.33 171.32, 47.73 169.93 C45.13 168.54, 42.58 167.01, 40.13 165.37 C37.68 163.73, 35.29 161.97, 33.01 160.09 C30.73 158.22, 28.53 156.23, 26.45 154.14 C24.36 152.06, 22.37 149.86, 20.5 147.58 C18.62 145.3, 16.86 142.91, 15.22 140.46 C13.58 138.01, 12.05 135.46, 10.66 132.86 C9.27 130.26, 8 127.58, 6.87 124.85 C5.74 122.12, 4.74 119.33, 3.89 116.51 C3.03 113.68, 2.31 110.8, 1.73 107.91 C1.16 105.02, 0.72 102.08, 0.43 99.15 C0.15 96.21, 0 93.25, 0 90.3 C0 87.34, 0.15 84.38, 0.43 81.44 C0.72 78.51, 1.16 75.57, 1.73 72.68 C2.31 69.79, 3.03 66.91, 3.89 64.08 C4.74 61.26, 5.74 58.47, 6.87 55.74 C8 53.02, 9.27 50.33, 10.66 47.73 C12.05 45.13, 13.58 42.58, 15.22 40.13 C16.86 37.68, 18.62 35.29, 20.5 33.01 C22.37 30.73, 24.36 28.53, 26.45 26.45 C28.53 24.36, 30.73 22.37, 33.01 20.5 C35.29 18.62, 37.68 16.86, 40.13 15.22 C42.58 13.58, 45.13 12.05, 47.73 10.66 C50.33 9.27, 53.02 8, 55.74 6.87 C58.47 5.74, 61.26 4.74, 64.08 3.89 C66.91 3.03, 69.79 2.31, 72.68 1.73 C75.57 1.16, 78.51 0.72, 81.44 0.43 C84.38 0.15, 87.34 0, 90.3 0 C93.25 0, 96.21 0.15, 99.15 0.43 C102.08 0.72, 105.02 1.16, 107.91 1.73 C110.8 2.31, 113.68 3.03, 116.51 3.89 C119.33 4.74, 122.12 5.74, 124.85 6.87 C127.58 8, 130.26 9.27, 132.86 10.66 C135.46 12.05, 138.01 13.58, 140.46 15.22 C142.91 16.86, 145.3 18.62, 147.58 20.5 C149.86 22.37, 152.06 24.36, 154.14 26.45 C156.23 28.53, 158.22 30.73, 160.09 33.01 C161.97 35.29, 163.73 37.68, 165.37 40.13 C167.01 42.58, 168.54 45.13, 169.93 47.73 C171.32 50.33, 172.59 53.02, 173.72 55.74 C174.85 58.47, 175.85 61.26, 176.7 64.08 C177.56 66.91, 178.28 69.79, 178.86 72.68 C179.43 75.57, 179.87 78.51, 180.16 81.44 C180.44 84.38, 180.52 88.82, 180.59 90.3 C180.66 91.77, 180.66 88.82, 180.59 90.3" stroke="#1971c2" stroke-width="4" fill="none"></path></g><g stroke-opacity="0.7" fill-opacity="0.7" stroke-linecap="round" transform="translate(1852.9316973192642 135.3475202200516) rotate(0 224.3854795181178 64.67859548846877)"><path d="M32 0 C123.07 0, 214.15 0, 416.77 0 C438.1 0, 448.77 10.67, 448.77 32 C448.77 56.63, 448.77 81.25, 448.77 97.36 C448.77 118.69, 438.1 129.36, 416.77 129.36 C279.45 129.36, 142.12 129.36, 32 129.36 C10.67 129.36, 0 118.69, 0 97.36 C0 78.83, 0 60.31, 0 32 C0 10.67, 10.67 0, 32 0" stroke="none" stroke-width="0" fill="#a5d8ff"></path><path d="M32 0 C183.16 0, 334.32 0, 416.77 0 M32 0 C111.2 0, 190.4 0, 416.77 0 M416.77 0 C438.1 0, 448.77 10.67, 448.77 32 M416.77 0 C438.1 0, 448.77 10.67, 448.77 32 M448.77 32 C448.77 50.13, 448.77 68.26, 448.77 97.36 M448.77 32 C448.77 53.4, 448.77 74.8, 448.77 97.36 M448.77 97.36 C448.77 118.69, 438.1 129.36, 416.77 129.36 M448.77 97.36 C448.77 118.69, 438.1 129.36, 416.77 129.36 M416.77 129.36 C309.23 129.36, 201.68 129.36, 32 129.36 M416.77 129.36 C315.13 129.36, 213.5 129.36, 32 129.36 M32 129.36 C10.67 129.36, 0 118.69, 0 97.36 M32 129.36 C10.67 129.36, 0 118.69, 0 97.36 M0 97.36 C0 83.47, 0 69.59, 0 32 M0 97.36 C0 83.93, 0 70.5, 0 32 M0 32 C0 10.67, 10.67 0, 32 0 M0 32 C0 10.67, 10.67 0, 32 0" stroke="#1971c2" stroke-width="4" fill="none"></path></g><g stroke-opacity="0.7" fill-opacity="0.7" stroke-linecap="round" transform="translate(1856.0823631675182 309.8008647901088) rotate(0 224.3854795181178 64.67859548846877)"><path d="M32 0 C181.8 0, 331.61 0, 416.77 0 C438.1 0, 448.77 10.67, 448.77 32 C448.77 54.73, 448.77 77.47, 448.77 97.36 C448.77 118.69, 438.1 129.36, 416.77 129.36 C285.43 129.36, 154.08 129.36, 32 129.36 C10.67 129.36, 0 118.69, 0 97.36 C0 82.57, 0 67.78, 0 32 C0 10.67, 10.67 0, 32 0" stroke="none" stroke-width="0" fill="#a5d8ff"></path><path d="M32 0 C122.68 0, 213.36 0, 416.77 0 M32 0 C136.51 0, 241.01 0, 416.77 0 M416.77 0 C438.1 0, 448.77 10.67, 448.77 32 M416.77 0 C438.1 0, 448.77 10.67, 448.77 32 M448.77 32 C448.77 53.94, 448.77 75.89, 448.77 97.36 M448.77 32 C448.77 56.05, 448.77 80.09, 448.77 97.36 M448.77 97.36 C448.77 118.69, 438.1 129.36, 416.77 129.36 M448.77 97.36 C448.77 118.69, 438.1 129.36, 416.77 129.36 M416.77 129.36 C268.26 129.36, 119.75 129.36, 32 129.36 M416.77 129.36 C327.1 129.36, 237.42 129.36, 32 129.36 M32 129.36 C10.67 129.36, 0 118.69, 0 97.36 M32 129.36 C10.67 129.36, 0 118.69, 0 97.36 M0 97.36 C0 73.71, 0 50.05, 0 32 M0 97.36 C0 79.46, 0 61.56, 0 32 M0 32 C0 10.67, 10.67 0, 32 0 M0 32 C0 10.67, 10.67 0, 32 0" stroke="#1971c2" stroke-width="4" fill="none"></path></g><g stroke-opacity="0.7" fill-opacity="0.7" stroke-linecap="round" transform="translate(1861.9416764905357 482.3730613985663) rotate(0 224.3854795181178 64.67859548846866)"><path d="M32 0 C138.48 0, 244.96 0, 416.77 0 C438.1 0, 448.77 10.67, 448.77 32 C448.77 50.41, 448.77 68.83, 448.77 97.36 C448.77 118.69, 438.1 129.36, 416.77 129.36 C267.69 129.36, 118.6 129.36, 32 129.36 C10.67 129.36, 0 118.69, 0 97.36 C0 82.56, 0 67.76, 0 32 C0 10.67, 10.67 0, 32 0" stroke="none" stroke-width="0" fill="#a5d8ff"></path><path d="M32 0 C158.22 0, 284.44 0, 416.77 0 M32 0 C122.85 0, 213.71 0, 416.77 0 M416.77 0 C438.1 0, 448.77 10.67, 448.77 32 M416.77 0 C438.1 0, 448.77 10.67, 448.77 32 M448.77 32 C448.77 47.48, 448.77 62.96, 448.77 97.36 M448.77 32 C448.77 53.04, 448.77 74.08, 448.77 97.36 M448.77 97.36 C448.77 118.69, 438.1 129.36, 416.77 129.36 M448.77 97.36 C448.77 118.69, 438.1 129.36, 416.77 129.36 M416.77 129.36 C316.14 129.36, 215.52 129.36, 32 129.36 M416.77 129.36 C313.17 129.36, 209.57 129.36, 32 129.36 M32 129.36 C10.67 129.36, 0 118.69, 0 97.36 M32 129.36 C10.67 129.36, 0 118.69, 0 97.36 M0 97.36 C0 80.96, 0 64.57, 0 32 M0 97.36 C0 73.21, 0 49.06, 0 32 M0 32 C0 10.67, 10.67 0, 32 0 M0 32 C0 10.67, 10.67 0, 32 0" stroke="#1971c2" stroke-width="4" fill="none"></path></g><g stroke-linecap="round"><g transform="translate(1517.127830877138 199.81628541449027) rotate(0 -86.83710471586647 229.31764175406545)"><path d="M0 0 C-17.98 0, -35.96 0, -70.84 0 M0 0 C-14.46 0, -28.91 0, -70.84 0 M-70.84 0 C-81.5 0, -86.84 5.33, -86.84 16 M-70.84 0 C-81.5 0, -86.84 5.33, -86.84 16 M-86.84 16 C-86.84 156.58, -86.84 297.16, -86.84 442.64 M-86.84 16 C-86.84 103.9, -86.84 191.79, -86.84 442.64 M-86.84 442.64 C-86.84 453.3, -92.17 458.64, -102.84 458.64 M-86.84 442.64 C-86.84 453.3, -92.17 458.64, -102.84 458.64 M-102.84 458.64 C-119.72 458.64, -136.6 458.64, -173.67 458.64 M-102.84 458.64 C-128.23 458.64, -153.63 458.64, -173.67 458.64" stroke="#1971c2" stroke-width="4" fill="none"></path></g><g transform="translate(1517.127830877138 199.81628541449027) rotate(0 -86.83710471586647 229.31764175406545)"><path d="M-150.18 450.08 C-156.14 452.25, -162.11 454.42, -173.67 458.64 M-150.18 450.08 C-154.98 451.83, -159.77 453.57, -173.67 458.64" stroke="#1971c2" stroke-width="4" fill="none"></path></g><g transform="translate(1517.127830877138 199.81628541449027) rotate(0 -86.83710471586647 229.31764175406545)"><path d="M-150.18 467.19 C-156.14 465.02, -162.11 462.85, -173.67 458.64 M-150.18 467.19 C-154.98 465.44, -159.77 463.7, -173.67 458.64" stroke="#1971c2" stroke-width="4" fill="none"></path></g></g><mask></mask><g stroke-opacity="0.4" fill-opacity="0.4" stroke-linecap="round" transform="translate(489.338403082721 399.16724232145225) rotate(0 90.29510215681944 90.29510215681933)"><path d="M180.59 90.3 C180.59 93.25, 180.44 96.21, 180.16 99.15 C179.87 102.08, 179.43 105.02, 178.86 107.91 C178.28 110.8, 177.56 113.68, 176.7 116.51 C175.85 119.33, 174.85 122.12, 173.72 124.85 C172.59 127.58, 171.32 130.26, 169.93 132.86 C168.54 135.46, 167.01 138.01, 165.37 140.46 C163.73 142.91, 161.97 145.3, 160.09 147.58 C158.22 149.86, 156.23 152.06, 154.14 154.14 C152.06 156.23, 149.86 158.22, 147.58 160.09 C145.3 161.97, 142.91 163.73, 140.46 165.37 C138.01 167.01, 135.46 168.54, 132.86 169.93 C130.26 171.32, 127.58 172.59, 124.85 173.72 C122.12 174.85, 119.33 175.85, 116.51 176.7 C113.68 177.56, 110.8 178.28, 107.91 178.86 C105.02 179.43, 102.08 179.87, 99.15 180.16 C96.21 180.44, 93.25 180.59, 90.3 180.59 C87.34 180.59, 84.38 180.44, 81.44 180.16 C78.51 179.87, 75.57 179.43, 72.68 178.86 C69.79 178.28, 66.91 177.56, 64.08 176.7 C61.26 175.85, 58.47 174.85, 55.74 173.72 C53.02 172.59, 50.33 171.32, 47.73 169.93 C45.13 168.54, 42.58 167.01, 40.13 165.37 C37.68 163.73, 35.29 161.97, 33.01 160.09 C30.73 158.22, 28.53 156.23, 26.45 154.14 C24.36 152.06, 22.37 149.86, 20.5 147.58 C18.62 145.3, 16.86 142.91, 15.22 140.46 C13.58 138.01, 12.05 135.46, 10.66 132.86 C9.27 130.26, 8 127.58, 6.87 124.85 C5.74 122.12, 4.74 119.33, 3.89 116.51 C3.03 113.68, 2.31 110.8, 1.73 107.91 C1.16 105.02, 0.72 102.08, 0.43 99.15 C0.15 96.21, 0 93.25, 0 90.3 C0 87.34, 0.15 84.38, 0.43 81.44 C0.72 78.51, 1.16 75.57, 1.73 72.68 C2.31 69.79, 3.03 66.91, 3.89 64.08 C4.74 61.26, 5.74 58.47, 6.87 55.74 C8 53.02, 9.27 50.33, 10.66 47.73 C12.05 45.13, 13.58 42.58, 15.22 40.13 C16.86 37.68, 18.62 35.29, 20.5 33.01 C22.37 30.73, 24.36 28.53, 26.45 26.45 C28.53 24.36, 30.73 22.37, 33.01 20.5 C35.29 18.62, 37.68 16.86, 40.13 15.22 C42.58 13.58, 45.13 12.05, 47.73 10.66 C50.33 9.27, 53.02 8, 55.74 6.87 C58.47 5.74, 61.26 4.74, 64.08 3.89 C66.91 3.03, 69.79 2.31, 72.68 1.73 C75.57 1.16, 78.51 0.72, 81.44 0.43 C84.38 0.15, 87.34 0, 90.3 0 C93.25 0, 96.21 0.15, 99.15 0.43 C102.08 0.72, 105.02 1.16, 107.91 1.73 C110.8 2.31, 113.68 3.03, 116.51 3.89 C119.33 4.74, 122.12 5.74, 124.85 6.87 C127.58 8, 130.26 9.27, 132.86 10.66 C135.46 12.05, 138.01 13.58, 140.46 15.22 C142.91 16.86, 145.3 18.62, 147.58 20.5 C149.86 22.37, 152.06 24.36, 154.14 26.45 C156.23 28.53, 158.22 30.73, 160.09 33.01 C161.97 35.29, 163.73 37.68, 165.37 40.13 C167.01 42.58, 168.54 45.13, 169.93 47.73 C171.32 50.33, 172.59 53.02, 173.72 55.74 C174.85 58.47, 175.85 61.26, 176.7 64.08 C177.56 66.91, 178.28 69.79, 178.86 72.68 C179.43 75.57, 179.87 78.51, 180.16 81.44 C180.44 84.38, 180.52 88.82, 180.59 90.3 C180.66 91.77, 180.66 88.82, 180.59 90.3" stroke="none" stroke-width="0" fill="#a5d8ff"></path><path d="M180.59 90.3 C180.59 93.25, 180.44 96.21, 180.16 99.15 C179.87 102.08, 179.43 105.02, 178.86 107.91 C178.28 110.8, 177.56 113.68, 176.7 116.51 C175.85 119.33, 174.85 122.12, 173.72 124.85 C172.59 127.58, 171.32 130.26, 169.93 132.86 C168.54 135.46, 167.01 138.01, 165.37 140.46 C163.73 142.91, 161.97 145.3, 160.09 147.58 C158.22 149.86, 156.23 152.06, 154.14 154.14 C152.06 156.23, 149.86 158.22, 147.58 160.09 C145.3 161.97, 142.91 163.73, 140.46 165.37 C138.01 167.01, 135.46 168.54, 132.86 169.93 C130.26 171.32, 127.58 172.59, 124.85 173.72 C122.12 174.85, 119.33 175.85, 116.51 176.7 C113.68 177.56, 110.8 178.28, 107.91 178.86 C105.02 179.43, 102.08 179.87, 99.15 180.16 C96.21 180.44, 93.25 180.59, 90.3 180.59 C87.34 180.59, 84.38 180.44, 81.44 180.16 C78.51 179.87, 75.57 179.43, 72.68 178.86 C69.79 178.28, 66.91 177.56, 64.08 176.7 C61.26 175.85, 58.47 174.85, 55.74 173.72 C53.02 172.59, 50.33 171.32, 47.73 169.93 C45.13 168.54, 42.58 167.01, 40.13 165.37 C37.68 163.73, 35.29 161.97, 33.01 160.09 C30.73 158.22, 28.53 156.23, 26.45 154.14 C24.36 152.06, 22.37 149.86, 20.5 147.58 C18.62 145.3, 16.86 142.91, 15.22 140.46 C13.58 138.01, 12.05 135.46, 10.66 132.86 C9.27 130.26, 8 127.58, 6.87 124.85 C5.74 122.12, 4.74 119.33, 3.89 116.51 C3.03 113.68, 2.31 110.8, 1.73 107.91 C1.16 105.02, 0.72 102.08, 0.43 99.15 C0.15 96.21, 0 93.25, 0 90.3 C0 87.34, 0.15 84.38, 0.43 81.44 C0.72 78.51, 1.16 75.57, 1.73 72.68 C2.31 69.79, 3.03 66.91, 3.89 64.08 C4.74 61.26, 5.74 58.47, 6.87 55.74 C8 53.02, 9.27 50.33, 10.66 47.73 C12.05 45.13, 13.58 42.58, 15.22 40.13 C16.86 37.68, 18.62 35.29, 20.5 33.01 C22.37 30.73, 24.36 28.53, 26.45 26.45 C28.53 24.36, 30.73 22.37, 33.01 20.5 C35.29 18.62, 37.68 16.86, 40.13 15.22 C42.58 13.58, 45.13 12.05, 47.73 10.66 C50.33 9.27, 53.02 8, 55.74 6.87 C58.47 5.74, 61.26 4.74, 64.08 3.89 C66.91 3.03, 69.79 2.31, 72.68 1.73 C75.57 1.16, 78.51 0.72, 81.44 0.43 C84.38 0.15, 87.34 0, 90.3 0 C93.25 0, 96.21 0.15, 99.15 0.43 C102.08 0.72, 105.02 1.16, 107.91 1.73 C110.8 2.31, 113.68 3.03, 116.51 3.89 C119.33 4.74, 122.12 5.74, 124.85 6.87 C127.58 8, 130.26 9.27, 132.86 10.66 C135.46 12.05, 138.01 13.58, 140.46 15.22 C142.91 16.86, 145.3 18.62, 147.58 20.5 C149.86 22.37, 152.06 24.36, 154.14 26.45 C156.23 28.53, 158.22 30.73, 160.09 33.01 C161.97 35.29, 163.73 37.68, 165.37 40.13 C167.01 42.58, 168.54 45.13, 169.93 47.73 C171.32 50.33, 172.59 53.02, 173.72 55.74 C174.85 58.47, 175.85 61.26, 176.7 64.08 C177.56 66.91, 178.28 69.79, 178.86 72.68 C179.43 75.57, 179.87 78.51, 180.16 81.44 C180.44 84.38, 180.52 88.82, 180.59 90.3 C180.66 91.77, 180.66 88.82, 180.59 90.3" stroke="#1971c2" stroke-width="4.5" fill="none" stroke-dasharray="1.5 10"></path></g><g stroke-opacity="0.4" fill-opacity="0.4" stroke-linecap="round" transform="translate(721.2726456852097 423.27266292228796) rotate(0 224.3854795181178 64.67859548846866)"><path d="M32 0 C171.78 0, 311.55 0, 416.77 0 C438.1 0, 448.77 10.67, 448.77 32 C448.77 47.97, 448.77 63.94, 448.77 97.36 C448.77 118.69, 438.1 129.36, 416.77 129.36 C272.67 129.36, 128.57 129.36, 32 129.36 C10.67 129.36, 0 118.69, 0 97.36 C0 76.07, 0 54.79, 0 32 C0 10.67, 10.67 0, 32 0" stroke="none" stroke-width="0" fill="#a5d8ff"></path><path d="M32 0 C114.68 0, 197.35 0, 416.77 0 M416.77 0 C438.1 0, 448.77 10.67, 448.77 32 M448.77 32 C448.77 53.21, 448.77 74.42, 448.77 97.36 M448.77 97.36 C448.77 118.69, 438.1 129.36, 416.77 129.36 M416.77 129.36 C280.24 129.36, 143.7 129.36, 32 129.36 M32 129.36 C10.67 129.36, 0 118.69, 0 97.36 M0 97.36 C0 83.74, 0 70.12, 0 32 M0 32 C0 10.67, 10.67 0, 32 0" stroke="#1971c2" stroke-width="4.5" fill="none" stroke-dasharray="1.5 10"></path></g><g stroke-opacity="0.4" fill-opacity="0.4" stroke-linecap="round" transform="translate(724.4233115334637 597.7260074923445) rotate(0 224.3854795181178 64.67859548846877)"><path d="M32 0 C134.94 0, 237.87 0, 416.77 0 C438.1 0, 448.77 10.67, 448.77 32 C448.77 54.61, 448.77 77.22, 448.77 97.36 C448.77 118.69, 438.1 129.36, 416.77 129.36 C313.71 129.36, 210.65 129.36, 32 129.36 C10.67 129.36, 0 118.69, 0 97.36 C0 82.53, 0 67.7, 0 32 C0 10.67, 10.67 0, 32 0" stroke="none" stroke-width="0" fill="#a5d8ff"></path><path d="M32 0 C150.39 0, 268.77 0, 416.77 0 M416.77 0 C438.1 0, 448.77 10.67, 448.77 32 M448.77 32 C448.77 53.18, 448.77 74.36, 448.77 97.36 M448.77 97.36 C448.77 118.69, 438.1 129.36, 416.77 129.36 M416.77 129.36 C332.26 129.36, 247.76 129.36, 32 129.36 M32 129.36 C10.67 129.36, 0 118.69, 0 97.36 M0 97.36 C0 80.73, 0 64.1, 0 32 M0 32 C0 10.67, 10.67 0, 32 0" stroke="#1971c2" stroke-width="4.5" fill="none" stroke-dasharray="1.5 10"></path></g><g stroke-opacity="0.4" fill-opacity="0.4" stroke-linecap="round" transform="translate(730.2826248564811 770.2982041008029) rotate(0 224.3854795181178 64.67859548846877)"><path d="M32 0 C163.9 0, 295.81 0, 416.77 0 C438.1 0, 448.77 10.67, 448.77 32 C448.77 51.66, 448.77 71.31, 448.77 97.36 C448.77 118.69, 438.1 129.36, 416.77 129.36 C333 129.36, 249.22 129.36, 32 129.36 C10.67 129.36, 0 118.69, 0 97.36 C0 80.38, 0 63.41, 0 32 C0 10.67, 10.67 0, 32 0" stroke="none" stroke-width="0" fill="#a5d8ff"></path><path d="M32 0 C145.87 0, 259.74 0, 416.77 0 M416.77 0 C438.1 0, 448.77 10.67, 448.77 32 M448.77 32 C448.77 56.78, 448.77 81.56, 448.77 97.36 M448.77 97.36 C448.77 118.69, 438.1 129.36, 416.77 129.36 M416.77 129.36 C291.45 129.36, 166.12 129.36, 32 129.36 M32 129.36 C10.67 129.36, 0 118.69, 0 97.36 M0 97.36 C0 82.91, 0 68.46, 0 32 M0 32 C0 10.67, 10.67 0, 32 0" stroke="#1971c2" stroke-width="4.5" fill="none" stroke-dasharray="1.5 10"></path></g><g stroke-linecap="round" transform="translate(79.27336754753333 99.46047268216807) rotate(0 81.6246591385484 81.6246591385484)"><path d="M163.25 81.62 C163.25 84.47, 163.1 87.33, 162.8 90.16 C162.5 92.99, 162.06 95.81, 161.47 98.6 C160.87 101.38, 160.13 104.14, 159.25 106.85 C158.38 109.55, 157.35 112.23, 156.19 114.82 C155.04 117.42, 153.74 119.97, 152.31 122.44 C150.89 124.9, 149.33 127.3, 147.66 129.6 C145.99 131.9, 144.19 134.13, 142.28 136.24 C140.38 138.36, 138.36 140.38, 136.24 142.28 C134.13 144.19, 131.9 145.99, 129.6 147.66 C127.3 149.33, 124.9 150.89, 122.44 152.31 C119.97 153.74, 117.42 155.04, 114.82 156.19 C112.23 157.35, 109.55 158.38, 106.85 159.25 C104.14 160.13, 101.38 160.87, 98.6 161.47 C95.81 162.06, 92.99 162.5, 90.16 162.8 C87.33 163.1, 84.47 163.25, 81.62 163.25 C78.78 163.25, 75.92 163.1, 73.09 162.8 C70.26 162.5, 67.44 162.06, 64.65 161.47 C61.87 160.87, 59.11 160.13, 56.4 159.25 C53.7 158.38, 51.02 157.35, 48.42 156.19 C45.83 155.04, 43.28 153.74, 40.81 152.31 C38.35 150.89, 35.95 149.33, 33.65 147.66 C31.35 145.99, 29.12 144.19, 27.01 142.28 C24.89 140.38, 22.87 138.36, 20.97 136.24 C19.06 134.13, 17.26 131.9, 15.59 129.6 C13.92 127.3, 12.36 124.9, 10.94 122.44 C9.51 119.97, 8.21 117.42, 7.06 114.82 C5.9 112.23, 4.87 109.55, 3.99 106.85 C3.12 104.14, 2.38 101.38, 1.78 98.6 C1.19 95.81, 0.74 92.99, 0.45 90.16 C0.15 87.33, 0 84.47, 0 81.62 C0 78.78, 0.15 75.92, 0.45 73.09 C0.74 70.26, 1.19 67.44, 1.78 64.65 C2.38 61.87, 3.12 59.11, 3.99 56.4 C4.87 53.7, 5.9 51.02, 7.06 48.42 C8.21 45.83, 9.51 43.28, 10.94 40.81 C12.36 38.35, 13.92 35.95, 15.59 33.65 C17.26 31.35, 19.06 29.12, 20.97 27.01 C22.87 24.89, 24.89 22.87, 27.01 20.97 C29.12 19.06, 31.35 17.26, 33.65 15.59 C35.95 13.92, 38.35 12.36, 40.81 10.94 C43.28 9.51, 45.83 8.21, 48.42 7.06 C51.02 5.9, 53.7 4.87, 56.4 3.99 C59.11 3.12, 61.87 2.38, 64.65 1.78 C67.44 1.19, 70.26 0.74, 73.09 0.45 C75.92 0.15, 78.78 0, 81.62 0 C84.47 0, 87.33 0.15, 90.16 0.45 C92.99 0.74, 95.81 1.19, 98.6 1.78 C101.38 2.38, 104.14 3.12, 106.85 3.99 C109.55 4.87, 112.23 5.9, 114.82 7.06 C117.42 8.21, 119.97 9.51, 122.44 10.94 C124.9 12.36, 127.3 13.92, 129.6 15.59 C131.9 17.26, 134.13 19.06, 136.24 20.97 C138.36 22.87, 140.38 24.89, 142.28 27.01 C144.19 29.12, 145.99 31.35, 147.66 33.65 C149.33 35.95, 150.89 38.35, 152.31 40.81 C153.74 43.28, 155.04 45.83, 156.19 48.42 C157.35 51.02, 158.38 53.7, 159.25 56.4 C160.13 59.11, 160.87 61.87, 161.47 64.65 C162.06 67.44, 162.5 70.26, 162.8 73.09 C163.1 75.92, 163.17 80.2, 163.25 81.62 C163.32 83.05, 163.32 80.2, 163.25 81.62" stroke="#868e96" stroke-width="4" fill="none"></path></g><g stroke-linecap="round" transform="translate(294.43765170963934 152.5247642480349) rotate(0 441.63402681892126 38.02540259150828)"><path d="M19.01 0 C251.2 0, 483.4 0, 864.26 0 M19.01 0 C248.55 0, 478.09 0, 864.26 0 M864.26 0 C876.93 0, 883.27 6.34, 883.27 19.01 M864.26 0 C876.93 0, 883.27 6.34, 883.27 19.01 M883.27 19.01 C883.27 34.2, 883.27 49.38, 883.27 57.04 M883.27 19.01 C883.27 30.28, 883.27 41.55, 883.27 57.04 M883.27 57.04 C883.27 69.71, 876.93 76.05, 864.26 76.05 M883.27 57.04 C883.27 69.71, 876.93 76.05, 864.26 76.05 M864.26 76.05 C619.71 76.05, 375.16 76.05, 19.01 76.05 M864.26 76.05 C548.27 76.05, 232.28 76.05, 19.01 76.05 M19.01 76.05 C6.34 76.05, 0 69.71, 0 57.04 M19.01 76.05 C6.34 76.05, 0 69.71, 0 57.04 M0 57.04 C0 42.63, 0 28.22, 0 19.01 M0 57.04 C0 47.09, 0 37.15, 0 19.01 M0 19.01 C0 6.34, 6.34 0, 19.01 0 M0 19.01 C0 6.34, 6.34 0, 19.01 0" stroke="#868e96" stroke-width="4" fill="none"></path></g><g stroke-linecap="round" transform="translate(43.86962941758975 324.904947261025) rotate(0 141.29193941993015 38.85536042304636)"><path d="M19.43 0 C99.51 0, 179.6 0, 263.16 0 M19.43 0 C102.41 0, 185.39 0, 263.16 0 M263.16 0 C276.11 0, 282.58 6.48, 282.58 19.43 M263.16 0 C276.11 0, 282.58 6.48, 282.58 19.43 M282.58 19.43 C282.58 28.55, 282.58 37.67, 282.58 58.28 M282.58 19.43 C282.58 31.51, 282.58 43.59, 282.58 58.28 M282.58 58.28 C282.58 71.23, 276.11 77.71, 263.16 77.71 M282.58 58.28 C282.58 71.23, 276.11 77.71, 263.16 77.71 M263.16 77.71 C201.62 77.71, 140.09 77.71, 19.43 77.71 M263.16 77.71 C199.42 77.71, 135.69 77.71, 19.43 77.71 M19.43 77.71 C6.48 77.71, 0 71.23, 0 58.28 M19.43 77.71 C6.48 77.71, 0 71.23, 0 58.28 M0 58.28 C0 44.52, 0 30.75, 0 19.43 M0 58.28 C0 45.63, 0 32.98, 0 19.43 M0 19.43 C0 6.48, 6.48 0, 19.43 0 M0 19.43 C0 6.48, 6.48 0, 19.43 0" stroke="#868e96" stroke-width="4" fill="none"></path></g><g stroke-linecap="round" transform="translate(42.397290636882644 433.6551948543224) rotate(0 141.29193941993015 38.85536042304636)"><path d="M19.43 0 C84.8 0, 150.18 0, 263.16 0 M19.43 0 C98.72 0, 178.02 0, 263.16 0 M263.16 0 C276.11 0, 282.58 6.48, 282.58 19.43 M263.16 0 C276.11 0, 282.58 6.48, 282.58 19.43 M282.58 19.43 C282.58 28.59, 282.58 37.75, 282.58 58.28 M282.58 19.43 C282.58 34.28, 282.58 49.14, 282.58 58.28 M282.58 58.28 C282.58 71.23, 276.11 77.71, 263.16 77.71 M282.58 58.28 C282.58 71.23, 276.11 77.71, 263.16 77.71 M263.16 77.71 C196.5 77.71, 129.85 77.71, 19.43 77.71 M263.16 77.71 C185.73 77.71, 108.31 77.71, 19.43 77.71 M19.43 77.71 C6.48 77.71, 0 71.23, 0 58.28 M19.43 77.71 C6.48 77.71, 0 71.23, 0 58.28 M0 58.28 C0 44.89, 0 31.5, 0 19.43 M0 58.28 C0 48.56, 0 38.83, 0 19.43 M0 19.43 C0 6.48, 6.48 0, 19.43 0 M0 19.43 C0 6.48, 6.48 0, 19.43 0" stroke="#868e96" stroke-width="4" fill="none"></path></g><g stroke-linecap="round" transform="translate(42.893078185488775 548.9182879724779) rotate(0 141.29193941993015 38.85536042304648)"><path d="M19.43 0 C110.37 0, 201.32 0, 263.16 0 M19.43 0 C76.66 0, 133.89 0, 263.16 0 M263.16 0 C276.11 0, 282.58 6.48, 282.58 19.43 M263.16 0 C276.11 0, 282.58 6.48, 282.58 19.43 M282.58 19.43 C282.58 28.24, 282.58 37.04, 282.58 58.28 M282.58 19.43 C282.58 28.49, 282.58 37.56, 282.58 58.28 M282.58 58.28 C282.58 71.23, 276.11 77.71, 263.16 77.71 M282.58 58.28 C282.58 71.23, 276.11 77.71, 263.16 77.71 M263.16 77.71 C174.28 77.71, 85.41 77.71, 19.43 77.71 M263.16 77.71 C213.9 77.71, 164.65 77.71, 19.43 77.71 M19.43 77.71 C6.48 77.71, 0 71.23, 0 58.28 M19.43 77.71 C6.48 77.71, 0 71.23, 0 58.28 M0 58.28 C0 46.43, 0 34.57, 0 19.43 M0 58.28 C0 49.57, 0 40.86, 0 19.43 M0 19.43 C0 6.48, 6.48 0, 19.43 0 M0 19.43 C0 6.48, 6.48 0, 19.43 0" stroke="#868e96" stroke-width="4" fill="none"></path></g><g stroke-linecap="round" transform="translate(47.26502293227895 655.8018203259519) rotate(0 141.29193941993015 38.85536042304648)"><path d="M19.43 0 C81.52 0, 143.62 0, 263.16 0 M19.43 0 C81.39 0, 143.35 0, 263.16 0 M263.16 0 C276.11 0, 282.58 6.48, 282.58 19.43 M263.16 0 C276.11 0, 282.58 6.48, 282.58 19.43 M282.58 19.43 C282.58 29.5, 282.58 39.58, 282.58 58.28 M282.58 19.43 C282.58 33.7, 282.58 47.97, 282.58 58.28 M282.58 58.28 C282.58 71.23, 276.11 77.71, 263.16 77.71 M282.58 58.28 C282.58 71.23, 276.11 77.71, 263.16 77.71 M263.16 77.71 C176.57 77.71, 89.99 77.71, 19.43 77.71 M263.16 77.71 C177.77 77.71, 92.38 77.71, 19.43 77.71 M19.43 77.71 C6.48 77.71, 0 71.23, 0 58.28 M19.43 77.71 C6.48 77.71, 0 71.23, 0 58.28 M0 58.28 C0 47.91, 0 37.54, 0 19.43 M0 58.28 C0 46.35, 0 34.42, 0 19.43 M0 19.43 C0 6.48, 6.48 0, 19.43 0 M0 19.43 C0 6.48, 6.48 0, 19.43 0" stroke="#868e96" stroke-width="4" fill="none"></path></g><g stroke-linecap="round" transform="translate(45.79268415157185 764.5520679192489) rotate(0 141.29193941993015 38.85536042304648)"><path d="M19.43 0 C85.73 0, 152.04 0, 263.16 0 M19.43 0 C68.95 0, 118.46 0, 263.16 0 M263.16 0 C276.11 0, 282.58 6.48, 282.58 19.43 M263.16 0 C276.11 0, 282.58 6.48, 282.58 19.43 M282.58 19.43 C282.58 34.18, 282.58 48.93, 282.58 58.28 M282.58 19.43 C282.58 29.05, 282.58 38.66, 282.58 58.28 M282.58 58.28 C282.58 71.23, 276.11 77.71, 263.16 77.71 M282.58 58.28 C282.58 71.23, 276.11 77.71, 263.16 77.71 M263.16 77.71 C176.98 77.71, 90.8 77.71, 19.43 77.71 M263.16 77.71 C180.47 77.71, 97.78 77.71, 19.43 77.71 M19.43 77.71 C6.48 77.71, 0 71.23, 0 58.28 M19.43 77.71 C6.48 77.71, 0 71.23, 0 58.28 M0 58.28 C0 45.77, 0 33.25, 0 19.43 M0 58.28 C0 43.18, 0 28.07, 0 19.43 M0 19.43 C0 6.48, 6.48 0, 19.43 0 M0 19.43 C0 6.48, 6.48 0, 19.43 0" stroke="#868e96" stroke-width="4" fill="none"></path></g><g stroke-linecap="round" transform="translate(46.28847170017798 879.8151610374046) rotate(0 141.29193941993015 38.85536042304648)"><path d="M19.43 0 C71.72 0, 124.01 0, 263.16 0 M19.43 0 C93.7 0, 167.96 0, 263.16 0 M263.16 0 C276.11 0, 282.58 6.48, 282.58 19.43 M263.16 0 C276.11 0, 282.58 6.48, 282.58 19.43 M282.58 19.43 C282.58 31.3, 282.58 43.18, 282.58 58.28 M282.58 19.43 C282.58 29.63, 282.58 39.84, 282.58 58.28 M282.58 58.28 C282.58 71.23, 276.11 77.71, 263.16 77.71 M282.58 58.28 C282.58 71.23, 276.11 77.71, 263.16 77.71 M263.16 77.71 C168.76 77.71, 74.36 77.71, 19.43 77.71 M263.16 77.71 C183.08 77.71, 103.01 77.71, 19.43 77.71 M19.43 77.71 C6.48 77.71, 0 71.23, 0 58.28 M19.43 77.71 C6.48 77.71, 0 71.23, 0 58.28 M0 58.28 C0 48.03, 0 37.78, 0 19.43 M0 58.28 C0 42.82, 0 27.37, 0 19.43 M0 19.43 C0 6.48, 6.48 0, 19.43 0 M0 19.43 C0 6.48, 6.48 0, 19.43 0" stroke="#868e96" stroke-width="4" fill="none"></path></g></svg>